<svg xmlns="http://www.w3.org/2000/svg" viewBox="0 0 1183 687.58"><g id="b74b9d9c-b4a1-4a51-828c-2947ee684d9a" data-name="Layer 2"><g id="b6e8629b-7938-4624-8115-9637b490ecf6" data-name="clouds"><rect y="457.19" width="561.73" height="230.39" rx="115.19" fill="#dbf0ec"/><rect x="802.47" y="282.16" width="380.53" height="181.2" rx="90.6" fill="#f2f8ee"/><path d="M660.1,92.91a93.21,93.21,0,0,1-93.19,93.47H409a7.76,7.76,0,0,0-7.76,7.77h0a7.75,7.75,0,0,0,7.76,7.76h2.66c33,0,60.9,27,60.65,60A59.55,59.55,0,0,1,412.77,321H285.43c-33,0-60.9-27-60.65-60a59.55,59.55,0,0,1,59.54-59.07h61.26a7.76,7.76,0,0,0,7.77-7.76v-2.06a7.73,7.73,0,0,0-6.15-7.59A93.19,93.19,0,0,1,365.86,0H565.47C617.06,0,660,41.32,660.1,92.91Z" fill="#f2f8ee"/><path d="M1131.11,227.88A115.23,115.23,0,0,1,1016,337.82H753.94a17.48,17.48,0,0,0-17.48,17.47h0a17.48,17.48,0,0,0,17.48,17.47h53.33c65.94,0,106.51,68.6,103.92,134.61-1.16,29.73-1.29,42.71-20.79,62a115.42,115.42,0,0,1-81.46,33.74H342.08c-65.94,0-119.71-54.58-116.75-120.45A115.2,115.2,0,0,1,340.4,372.76H665.92a17.48,17.48,0,0,0,17.48-17.47h0a17.48,17.48,0,0,0-17.48-17.47H549.17c-65.94,0-119.71-54.58-116.75-120.46A115.2,115.2,0,0,1,547.49,107.43h466.87C1080.3,107.43,1134.07,162,1131.11,227.88Z" fill="#e3e9e0" opacity="0.8"/></g></g></svg>