<svg xmlns="http://www.w3.org/2000/svg" viewBox="0 0 884.65 520"><g id="f24f58ea-42ff-4ac3-b9c7-9ab465d87eec" data-name="Layer 2"><g id="fa355e20-9c6d-4184-91f4-3a8c5b841d4e" data-name="clouds"><rect y="289.99" width="319.79" height="114.01" rx="57" fill="#d1d8d0"/><rect x="260.58" y="346.93" width="416.49" height="173.07" rx="86.53" fill="#cdd4cc"/><path d="M873.76,339.71a120.42,120.42,0,0,1-120.4,121.76H314.86c-66.23,0-121.22-52.84-121.94-119.06a120.5,120.5,0,0,1,62.27-106.82,11.32,11.32,0,0,0,5.81-9.9V209.3A11.35,11.35,0,0,0,249.65,198H178c-54.45,0-99.65-43.44-100.24-97.89A99,99,0,0,1,176.73,0H389c54.45,0,99.64,43.44,100.23,97.89a99,99,0,0,1-99,100.06H353a11.35,11.35,0,0,0-11.35,11.35h0A11.35,11.35,0,0,0,353,220.65H751.82C818.05,220.65,873,273.49,873.76,339.71Z" fill="#f2f8ee"/><rect x="88.26" y="281.17" width="462.73" height="201.74" rx="100.87" fill="#dde7e0" opacity="0.8"/><rect x="647.66" y="243.34" width="236.98" height="114.01" rx="57" fill="#cdd4cc" opacity="0.8"/></g></g></svg>