<svg xmlns="http://www.w3.org/2000/svg" viewBox="0 0 266 273.83"><defs><style>.cls-1{fill:#487d9e;}.cls-2{fill:#1d3557;}.cls-3{fill:#010101;opacity:0.2;}</style></defs><g id="Layer_2" data-name="Layer 2"><g id="Layer_1-2" data-name="Layer 1"><path class="cls-1" d="M112.38,46V256.67a17.16,17.16,0,1,1-34.32,0V46Z"/><path class="cls-1" d="M235,46V256.67a17.16,17.16,0,1,1-34.32,0V46Z"/><rect class="cls-1" x="65.06" width="34.32" height="38.61"/><rect class="cls-1" x="221.64" width="34.32" height="38.61"/><path class="cls-1" d="M26.73,46c2.45,5.77,7.65,9.76,13.68,9.76h225.4V46ZM40.41,21.45a14.28,14.28,0,0,0-10.72,5,18.29,18.29,0,0,0-4.43,12.13H265.81V21.45Z"/><rect class="cls-1" x="65.06" y="38.61" width="34.32" height="7.39"/><rect class="cls-1" x="221.64" y="38.61" width="34.32" height="7.39"/><rect class="cls-1" x="226.04" y="38.61" width="39.78" height="7.39"/><path class="cls-1" d="M65.06,38.61V46H26.83A15.88,15.88,0,0,1,25,38.61Z"/><rect class="cls-1" x="99.38" y="38.61" width="122.26" height="7.39"/><path class="cls-2" d="M265.81,0V38.61H22.1C9.89,38.61,0,30,0,19.3A18.12,18.12,0,0,1,6.47,5.65,23.74,23.74,0,0,1,22.1,0Z"/><path class="cls-2" d="M265.81,0V38.61H22.1C9.89,38.61,0,30,0,19.3A18.12,18.12,0,0,1,6.47,5.65,23.74,23.74,0,0,1,22.1,0Z"/><path class="cls-2" d="M265.81,0V38.61H22.1C9.89,38.61,0,30,0,19.3A18.12,18.12,0,0,1,6.47,5.65,23.74,23.74,0,0,1,22.1,0Z"/><path class="cls-2" d="M265.81,0V38.61H22.1C9.89,38.61,0,30,0,19.3A18.12,18.12,0,0,1,6.47,5.65,23.74,23.74,0,0,1,22.1,0Z"/><path class="cls-2" d="M265.81,0V38.61H22.1C9.89,38.61,0,30,0,19.3A18.12,18.12,0,0,1,6.47,5.65,23.74,23.74,0,0,1,22.1,0Z"/><path class="cls-3" d="M95.37,55.76h17a0,0,0,0,1,0,0V90.08a0,0,0,0,1,0,0h-17A17.16,17.16,0,0,1,78.21,72.92v0A17.16,17.16,0,0,1,95.37,55.76Z" transform="translate(22.38 168.21) rotate(-90)"/><path class="cls-3" d="M218.37,55.76h17a0,0,0,0,1,0,0V90.08a0,0,0,0,1,0,0h-17a17.16,17.16,0,0,1-17.16-17.16v0A17.16,17.16,0,0,1,218.37,55.76Z" transform="translate(145.38 291.21) rotate(-90)"/><path class="cls-3" d="M266,38.65V46H26.92a18.89,18.89,0,0,1-1.48-7.39Z"/></g></g></svg>