<svg xmlns="http://www.w3.org/2000/svg" viewBox="0 0 720.43 539.68"><g id="ee493147-1dd5-4195-bdcb-ba7e1045f3f7" data-name="Layer 2"><g id="f420123a-27dd-4931-9c99-d9d8d32eccb5" data-name="stars"><path d="M95.46,460.5a4,4,0,0,0-1.19,2.88,4.06,4.06,0,0,0-1.2-2.88,4,4,0,0,0-2.88-1.19,4.1,4.1,0,0,0,4.08-4.08,4,4,0,0,0,1.19,2.88,4.06,4.06,0,0,0,2.88,1.2A4,4,0,0,0,95.46,460.5Z" fill="#ebd3bf"/><path d="M267.1,338.8a4,4,0,0,0-1.19,2.88,4.08,4.08,0,0,0-4.08-4.07,4.08,4.08,0,0,0,4.08-4.07,4,4,0,0,0,1.19,2.88,4.09,4.09,0,0,0,2.88,1.19A4.09,4.09,0,0,0,267.1,338.8Z" fill="#ebd3bf" opacity="0.85"/><path d="M645.43,13.09A4.09,4.09,0,0,0,644.24,16a4.06,4.06,0,0,0-4.07-4.07,4.06,4.06,0,0,0,4.07-4.07,4.06,4.06,0,0,0,4.07,4.07A4.09,4.09,0,0,0,645.43,13.09Z" fill="#ebd3bf" opacity="0.7"/><path d="M690.88,473.76a4,4,0,0,0-1.19,2.88,4.08,4.08,0,0,0-4.08-4.07,4.08,4.08,0,0,0,4.08-4.07,4,4,0,0,0,1.19,2.88,4.09,4.09,0,0,0,2.88,1.19A4.09,4.09,0,0,0,690.88,473.76Z" fill="#e0b1cb"/><path d="M42.84,69a4.09,4.09,0,0,0-1.19,2.88,4.06,4.06,0,0,0-4.07-4.07,4.08,4.08,0,0,0,4.07-4.08,4.08,4.08,0,0,0,4.07,4.08A4.09,4.09,0,0,0,42.84,69Z" fill="#e0b1cb"/><path d="M682.34,21.24a4.06,4.06,0,0,0-1.2,2.88,4.06,4.06,0,0,0-4.07-4.07A4.06,4.06,0,0,0,681.14,16a4.08,4.08,0,0,0,4.08,4.08A4.06,4.06,0,0,0,682.34,21.24Z" fill="#bd95c4" opacity="0.7"/><path d="M601.58,21.24a4,4,0,0,0-1.19,2.88,4.08,4.08,0,0,0-4.08-4.07A4.08,4.08,0,0,0,600.39,16a4.06,4.06,0,0,0,4.07,4.08A4.09,4.09,0,0,0,601.58,21.24Z" fill="#9f86be" opacity="0.7"/><path d="M573.3,9a4.09,4.09,0,0,0-1.19,2.88A4.06,4.06,0,0,0,568,7.83a4.08,4.08,0,0,0,4.07-4.08,4.08,4.08,0,0,0,4.07,4.08A4.09,4.09,0,0,0,573.3,9Z" fill="#9f86be" opacity="0.7"/><circle cx="688.37" cy="429.56" r="2.04" fill="#bd95c4"/><circle cx="568.37" cy="483.56" r="2.04" fill="#bd95c4"/><circle cx="552.1" cy="29.51" r="2.04" fill="#bd95c4" opacity="0.7"/><circle cx="656.5" cy="448.73" r="2.76" fill="#9f86be"/><circle cx="698.67" cy="386.42" r="2.76" fill="#9f86be"/><circle cx="537.47" cy="207.91" r="2.76" fill="#9f86be"/><circle cx="636.01" cy="405.23" r="2.16" fill="#e0b1cb"/><circle cx="667.64" cy="415.54" r="2.16" fill="#e0b1cb"/><circle cx="43.21" cy="106.23" r="1.56" fill="#ebd3bf"/><path d="M462.77,142.53a4,4,0,0,1,1.19,2.88,4.1,4.1,0,0,1,4.08-4.08,4.08,4.08,0,0,1-4.08-4.07,4,4,0,0,1-1.19,2.88,4.09,4.09,0,0,1-2.88,1.19A4.06,4.06,0,0,1,462.77,142.53Z" fill="#ebd3bf" opacity="0.7"/><path d="M280.13,65.83a4.09,4.09,0,0,1,1.19,2.88,4.06,4.06,0,0,1,1.2-2.88,4,4,0,0,1,2.88-1.19,4.1,4.1,0,0,1-4.08-4.08,4.08,4.08,0,0,1-4.07,4.08A4,4,0,0,1,280.13,65.83Z" fill="#ebd3bf" opacity="0.85"/><path d="M514.65,44.27a4,4,0,0,1,1.19,2.88,4.1,4.1,0,0,1,4.08-4.08A4,4,0,0,1,517,41.88a4.06,4.06,0,0,1-1.2-2.88,4.06,4.06,0,0,1-4.07,4.07A4.06,4.06,0,0,1,514.65,44.27Z" fill="#9f86be" opacity="0.7"/><path d="M300.65,5.27a4,4,0,0,1,1.19,2.88,4.1,4.1,0,0,1,4.08-4.08A4,4,0,0,1,303,2.88,4.06,4.06,0,0,1,301.84,0a4,4,0,0,1-1.19,2.88,4,4,0,0,1-2.88,1.19A4.06,4.06,0,0,1,300.65,5.27Z" fill="#9f86be" opacity="0.7"/><path d="M542.93,32.05a4.06,4.06,0,0,1,1.19,2.88,4.08,4.08,0,0,1,4.07-4.08,4.06,4.06,0,0,1-4.07-4.07,4.06,4.06,0,0,1-4.07,4.07A4.06,4.06,0,0,1,542.93,32.05Z" fill="#9f86be" opacity="0.7"/><circle cx="84.13" cy="451.54" r="2.04" fill="#bd95c4"/><circle cx="2.76" cy="130.93" r="2.76" fill="#9f86be"/><path d="M473.71,239.87a4.06,4.06,0,0,1,1.2,2.88,4.06,4.06,0,0,1,4.07-4.07,4.06,4.06,0,0,1-4.07-4.07,4.08,4.08,0,0,1-4.08,4.07A4.06,4.06,0,0,1,473.71,239.87Z" fill="#ebd3bf"/><path d="M35.5,141.25a4.06,4.06,0,0,1,1.2,2.88,4,4,0,0,1,1.19-2.88,4.09,4.09,0,0,1,2.88-1.19,4.09,4.09,0,0,1-2.88-1.19A4,4,0,0,1,36.7,136a4.08,4.08,0,0,1-4.08,4.07A4.06,4.06,0,0,1,35.5,141.25Z" fill="#e0b1cb"/><path d="M136.05,441.73a4.09,4.09,0,0,1,1.19,2.88,4.06,4.06,0,0,1,4.07-4.07,4.06,4.06,0,0,1-4.07-4.08,4.06,4.06,0,0,1-4.07,4.08A4.09,4.09,0,0,1,136.05,441.73Z" fill="#bd95c4"/><path d="M668.84,501.8a4.06,4.06,0,0,1,1.2,2.88,4.06,4.06,0,0,1,4.07-4.07,4.08,4.08,0,0,1-4.07-4.08,4.1,4.1,0,0,1-4.08,4.08A4,4,0,0,1,668.84,501.8Z" fill="#9f86be"/><path d="M556.84,514.8a4.06,4.06,0,0,1,1.2,2.88,4.06,4.06,0,0,1,4.07-4.07,4.08,4.08,0,0,1-4.07-4.08,4.1,4.1,0,0,1-4.08,4.08A4,4,0,0,1,556.84,514.8Z" fill="#9f86be"/><circle cx="38.01" cy="97.05" r="2.04" fill="#bd95c4"/><circle cx="637.89" cy="470.22" r="2.76" fill="#9f86be"/><path d="M122.88,203.76a4,4,0,0,0-1.19,2.88,4.08,4.08,0,0,0-4.08-4.07,4.08,4.08,0,0,0,4.08-4.07,4,4,0,0,0,1.19,2.88,4.09,4.09,0,0,0,2.88,1.19A4.09,4.09,0,0,0,122.88,203.76Z" fill="#e0b1cb" opacity="0.85"/><circle cx="120.37" cy="159.56" r="2.04" fill="#bd95c4" opacity="0.85"/><circle cx="88.5" cy="178.73" r="2.76" fill="#9f86be" opacity="0.85"/><circle cx="130.67" cy="116.42" r="2.76" fill="#9f86be" opacity="0.85"/><circle cx="68.01" cy="135.23" r="2.16" fill="#e0b1cb"/><circle cx="99.64" cy="145.54" r="2.16" fill="#e0b1cb" opacity="0.85"/><path d="M100.84,231.8a4.06,4.06,0,0,1,1.2,2.88,4.06,4.06,0,0,1,4.07-4.07,4.08,4.08,0,0,1-4.07-4.08A4.1,4.1,0,0,1,98,230.61,4,4,0,0,1,100.84,231.8Z" fill="#9f86be" opacity="0.85"/><circle cx="69.89" cy="200.22" r="2.76" fill="#9f86be"/><path d="M367.4,508.76a4,4,0,0,1,1.19,2.88,4.08,4.08,0,0,1,4.08-4.07,4.08,4.08,0,0,1-4.08-4.07,4.06,4.06,0,0,1-4.07,4.07A4.07,4.07,0,0,1,367.4,508.76Z" fill="#e0b1cb"/><circle cx="369.91" cy="464.56" r="2.04" fill="#bd95c4"/><circle cx="401.78" cy="483.73" r="2.76" fill="#9f86be"/><circle cx="359.61" cy="421.42" r="2.76" fill="#9f86be"/><circle cx="281.61" cy="249.42" r="2.76" fill="#9f86be"/><circle cx="422.27" cy="440.23" r="2.16" fill="#e0b1cb"/><circle cx="390.64" cy="450.54" r="2.16" fill="#e0b1cb"/><circle cx="327.91" cy="145.56" r="2.04" fill="#bd95c4"/><circle cx="359.78" cy="164.73" r="2.76" fill="#9f86be"/><circle cx="317.61" cy="102.42" r="2.76" fill="#9f86be"/><circle cx="380.27" cy="121.23" r="2.16" fill="#e0b1cb"/><circle cx="348.64" cy="131.54" r="2.16" fill="#e0b1cb"/><circle cx="116.91" cy="72.56" r="2.04" fill="#bd95c4"/><circle cx="148.78" cy="91.73" r="2.76" fill="#9f86be"/><circle cx="106.61" cy="29.42" r="2.76" fill="#9f86be"/><circle cx="169.27" cy="48.23" r="2.16" fill="#e0b1cb"/><circle cx="137.64" cy="58.54" r="2.16" fill="#e0b1cb"/><circle cx="665.91" cy="143.56" r="2.04" fill="#bd95c4"/><circle cx="514.91" cy="113.56" r="2.04" fill="#bd95c4"/><circle cx="697.78" cy="162.73" r="2.76" fill="#9f86be"/><circle cx="655.61" cy="100.42" r="2.76" fill="#9f86be"/><circle cx="718.27" cy="119.23" r="2.16" fill="#e0b1cb"/><circle cx="686.64" cy="129.54" r="2.16" fill="#e0b1cb"/><circle cx="359.64" cy="324.54" r="2.16" fill="#e0b1cb"/><circle cx="482.91" cy="353.56" r="2.04" fill="#bd95c4"/><circle cx="514.78" cy="372.73" r="2.76" fill="#9f86be"/><circle cx="656.78" cy="293.73" r="2.76" fill="#9f86be"/><circle cx="472.61" cy="310.42" r="2.76" fill="#9f86be"/><circle cx="535.27" cy="329.23" r="2.16" fill="#e0b1cb"/><circle cx="503.64" cy="339.54" r="2.16" fill="#e0b1cb"/><circle cx="298.64" cy="283.54" r="2.16" fill="#e0b1cb"/><circle cx="54.29" cy="344.95" r="2.04" fill="#bd95c4"/><circle cx="47.18" cy="308.45" r="2.76" fill="#9f86be"/><circle cx="91.3" cy="369.39" r="2.76" fill="#9f86be"/><circle cx="95.06" cy="304.07" r="2.16" fill="#e0b1cb"/><circle cx="74.55" cy="330.27" r="2.16" fill="#e0b1cb"/><path d="M389.44,536.8a4.06,4.06,0,0,0-1.2,2.88,4.06,4.06,0,0,0-4.07-4.07,4.08,4.08,0,0,0,4.07-4.08,4.1,4.1,0,0,0,4.08,4.08A4,4,0,0,0,389.44,536.8Z" fill="#9f86be"/><circle cx="420.39" cy="505.22" r="2.76" fill="#9f86be"/><circle cx="117.71" cy="457.91" r="2.76" fill="#9f86be"/><circle cx="58.74" cy="83.03" r="2.16" fill="#e0b1cb"/><path d="M426.29,47.92a4.09,4.09,0,0,1,1.19,2.88,4.06,4.06,0,0,1,4.07-4.07,4.08,4.08,0,0,1-4.07-4.08,4.08,4.08,0,0,1-4.07,4.08A4.09,4.09,0,0,1,426.29,47.92Z" fill="#ebd3bf" opacity="0.7"/><circle cx="505.29" cy="34.63" r="2.04" fill="#bd95c4" opacity="0.7"/><circle cx="571.91" cy="267.02" r="2.76" fill="#9f86be"/><circle cx="529.55" cy="422.91" r="2.76" fill="#9f86be"/><circle cx="544.55" cy="515.91" r="2.76" fill="#9f86be"/></g></g></svg>