<svg xmlns="http://www.w3.org/2000/svg" viewBox="0 0 163 159.71"><g id="b73d0376-c5e2-43c0-921a-efcd360c9efe" data-name="Layer 2"><g id="b4c048ee-e905-457e-9d3a-f01a35633f97" data-name="stars"><circle cx="80.25" cy="79.4" r="46.75" fill="#ffd058"/><rect x="71.49" width="15.85" height="26.94" rx="7.92" fill="#ffd058"/><rect x="22.24" y="19.2" width="15.85" height="26.94" rx="7.92" transform="translate(-14.26 30.9) rotate(-45)" fill="#ffd058"/><rect x="120.74" y="19.2" width="15.85" height="26.94" rx="7.92" transform="translate(196.54 146.75) rotate(-135)" fill="#ffd058"/><rect x="72.32" y="132.77" width="15.85" height="26.94" rx="7.92" fill="#ffd058"/><rect x="23.08" y="113.57" width="15.85" height="26.94" rx="7.92" transform="translate(98.91 15.29) rotate(45)" fill="#ffd058"/><rect x="121.57" y="113.57" width="15.85" height="26.94" rx="7.92" transform="translate(310.9 125.3) rotate(135)" fill="#ffd058"/><rect x="141.61" y="65.99" width="15.85" height="26.94" rx="7.92" transform="translate(228.99 -70.07) rotate(90)" fill="#ffd058"/><rect x="5.55" y="65.99" width="15.85" height="26.94" rx="7.92" transform="translate(92.93 65.99) rotate(90)" fill="#ffd058"/></g></g></svg>